<svg width="524" height="515" viewBox="0 0 524 515" fill="none" xmlns="http://www.w3.org/2000/svg">
<path d="M19.3789 381.171C33.5243 367.026 53.9909 366.424 67.2334 379.666L112.98 425.413L81.6797 456.714L112.378 487.412C116.14 491.174 121.859 491.174 125.621 487.412C129.383 483.65 129.383 477.932 125.621 474.17L105.606 454.155L123.664 436.098L143.679 456.111C156.921 469.354 156.319 489.82 142.174 503.966C128.179 517.96 107.563 518.713 94.3203 505.471L17.874 429.024C4.63184 415.782 5.38424 395.166 19.3789 381.171ZM419.287 476.759C420.138 476.759 420.828 477.45 420.828 478.301C425.085 478.301 428.537 481.752 428.537 486.009V499.884C428.537 504.141 425.085 507.592 420.828 507.592H405.412C401.155 507.592 397.703 504.141 397.703 499.884V486.009C397.703 481.752 401.155 478.301 405.412 478.301C405.412 477.449 406.102 476.759 406.953 476.759C407.804 476.759 408.495 477.449 408.495 478.301H417.745C417.745 477.449 418.436 476.759 419.287 476.759ZM418.8 489.509C418.179 488.927 417.202 488.958 416.62 489.579L411.818 494.701L409.464 492.798C408.802 492.263 407.831 492.366 407.296 493.028C406.761 493.69 406.864 494.661 407.526 495.196L410.995 497.999C411.623 498.507 412.537 498.444 413.089 497.854L418.87 491.688C419.452 491.067 419.421 490.091 418.8 489.509ZM376.12 458.259C384.634 458.259 391.537 465.161 391.537 473.676C391.537 482.19 384.634 489.092 376.12 489.092C367.606 489.092 360.703 482.19 360.703 473.676C360.703 465.161 367.606 458.259 376.12 458.259ZM376.12 465.967C375.269 465.967 374.578 466.657 374.578 467.509V472.134H369.953C369.102 472.134 368.412 472.824 368.412 473.676C368.412 474.527 369.102 475.217 369.953 475.217H374.578V479.842C374.578 480.693 375.269 481.384 376.12 481.384C376.972 481.384 377.662 480.693 377.662 479.842V475.217H382.287C383.138 475.216 383.828 474.527 383.828 473.676C383.828 472.825 383.138 472.134 382.287 472.134H377.662V467.509C377.662 466.657 376.971 465.967 376.12 465.967ZM444.12 449.759C452.634 449.759 459.537 456.661 459.537 465.176C459.537 473.69 452.634 480.592 444.12 480.592C435.606 480.592 428.703 473.69 428.703 465.176C428.703 456.661 435.606 449.759 444.12 449.759ZM451.273 459.366C450.619 458.821 449.648 458.91 449.103 459.563L442.425 467.577L438.99 464.455C438.36 463.883 437.385 463.929 436.812 464.559C436.24 465.188 436.286 466.163 436.916 466.736L441.541 470.941C441.852 471.224 442.265 471.367 442.685 471.338C443.104 471.309 443.494 471.11 443.763 470.787L451.471 461.537C452.016 460.883 451.927 459.911 451.273 459.366ZM417.745 458.259C422.002 458.259 425.453 461.71 425.453 465.967C425.453 468.521 423.382 470.592 420.828 470.592H405.412C402.858 470.592 400.787 468.521 400.787 465.967C400.787 461.71 404.238 458.259 408.495 458.259H417.745ZM413.12 439.759C417.377 439.759 420.828 443.21 420.828 447.467C420.828 451.724 417.377 455.176 413.12 455.176C408.863 455.176 405.412 451.724 405.412 447.467C405.412 443.21 408.863 439.759 413.12 439.759ZM365.328 423.759C369.585 423.759 373.037 427.21 373.037 431.467V446.884C373.037 451.141 369.585 454.592 365.328 454.592H349.912C345.655 454.592 342.203 451.141 342.203 446.884V431.467C342.203 427.21 345.655 423.759 349.912 423.759H365.328ZM473.745 438.217C477.159 438.217 479.912 440.986 479.912 444.384C479.912 447.781 477.159 450.551 473.745 450.551C470.331 450.551 467.578 447.781 467.578 444.384C467.578 440.986 470.331 438.217 473.745 438.217ZM197.807 326.983H264.049V382.885H197.807V449.127H141.905V382.885H75.6641V326.983H141.905V260.742H197.807V326.983ZM464.444 442.842C465.296 442.842 465.985 443.533 465.985 444.384C465.985 445.235 465.296 445.925 464.444 445.926H455.245C454.394 445.926 453.703 445.235 453.703 444.384C453.703 443.532 454.394 442.842 455.245 442.842H464.444ZM483.011 442.842C483.862 442.842 484.552 443.533 484.552 444.384C484.552 445.235 483.862 445.926 483.011 445.926H482.995C482.144 445.926 481.453 445.235 481.453 444.384C481.453 443.532 482.144 442.842 482.995 442.842H483.011ZM448.7 414.301C451.072 414.301 452.995 416.223 452.995 418.595C452.995 419.839 452.55 421.043 451.74 421.987L447.371 427.085C445.695 429.041 444.773 431.532 444.772 434.108V437.426C444.772 439.98 442.702 442.051 440.147 442.051H438.092C435.538 442.05 433.467 439.98 433.467 437.426V434.108C433.467 431.532 432.546 429.041 430.869 427.085L426.5 421.987C425.69 421.043 425.245 419.839 425.245 418.595C425.245 416.223 427.168 414.301 429.54 414.301H448.7ZM351.454 437.171C350.347 437.171 349.45 438.068 349.449 439.175C349.449 440.282 350.347 441.18 351.454 441.18C352.561 441.179 353.458 440.281 353.458 439.175C353.458 438.068 352.561 437.171 351.454 437.171ZM357.62 437.171C356.514 437.171 355.617 438.068 355.616 439.175C355.616 440.282 356.513 441.18 357.62 441.18C358.727 441.18 359.624 440.282 359.624 439.175C359.624 438.068 358.727 437.171 357.62 437.171ZM363.787 437.171C362.68 437.171 361.784 438.068 361.783 439.175C361.783 440.282 362.68 441.18 363.787 441.18C364.894 441.18 365.791 440.282 365.791 439.175C365.791 438.068 364.894 437.171 363.787 437.171ZM49.1748 397.724C45.4128 393.962 39.6946 393.962 35.9326 397.724C32.1706 401.486 32.1707 407.205 35.9326 410.967L65.126 440.16L78.3691 426.918L49.1748 397.724ZM394.886 411.616C396.787 411.377 398.167 412.953 398.167 414.601V422.332C398.167 423.186 398.859 423.878 399.713 423.878H407.445C409.093 423.878 410.668 425.259 410.43 427.16C410.161 429.298 409.398 431.353 408.192 433.157C406.663 435.446 404.489 437.229 401.946 438.282C399.403 439.336 396.605 439.611 393.905 439.074C391.206 438.537 388.726 437.212 386.779 435.266C384.833 433.319 383.508 430.839 382.971 428.14C382.434 425.44 382.709 422.641 383.763 420.099C384.816 417.556 386.6 415.382 388.889 413.852C390.693 412.647 392.748 411.885 394.886 411.616ZM464.495 422.801C467.909 422.801 470.662 425.569 470.662 428.967C470.662 432.364 467.909 435.134 464.495 435.134C461.081 435.134 458.328 432.364 458.328 428.967C458.328 425.569 461.081 422.801 464.495 422.801ZM320.12 402.759C328.634 402.759 335.537 409.661 335.537 418.176C335.537 426.69 328.634 433.592 320.12 433.592C311.606 433.592 304.703 426.69 304.703 418.176C304.703 409.661 311.606 402.759 320.12 402.759ZM455.261 427.426C456.112 427.426 456.802 428.116 456.802 428.967C456.802 429.818 456.112 430.509 455.261 430.509H455.245C454.394 430.509 453.703 429.818 453.703 428.967C453.703 428.115 454.394 427.426 455.245 427.426H455.261ZM482.995 427.426C483.846 427.426 484.537 428.116 484.537 428.967C484.537 429.818 483.847 430.509 482.995 430.509H473.745C472.894 430.509 472.203 429.818 472.203 428.967C472.203 428.115 472.894 427.426 473.745 427.426H482.995ZM322.193 411.185C321.345 409.467 318.894 409.467 318.046 411.185L316.831 413.648L314.112 414.043C312.216 414.319 311.459 416.649 312.831 417.987L314.798 419.904L314.333 422.611C314.009 424.5 315.992 425.941 317.688 425.049L320.12 423.771L322.551 425.049C324.247 425.941 326.23 424.5 325.906 422.611L325.441 419.904L327.408 417.987C328.781 416.649 328.024 414.319 326.127 414.043L323.409 413.648L322.193 411.185ZM501.391 392.759C502.242 392.759 502.932 393.449 502.933 394.301C502.932 395.152 502.242 395.842 501.391 395.842H500.62C493.809 395.842 488.287 401.364 488.287 408.176C488.287 414.987 493.809 420.509 500.62 420.509C507.431 420.509 512.953 414.987 512.953 408.176V407.404C512.953 406.553 513.644 405.863 514.495 405.863C515.346 405.863 516.037 406.553 516.037 407.404V408.176C516.037 416.69 509.134 423.592 500.62 423.592C492.106 423.592 485.203 416.69 485.203 408.176C485.203 399.661 492.106 392.759 500.62 392.759H501.391ZM399.662 411.518C399.662 409.875 401.047 408.262 402.981 408.54C404.004 408.687 405.007 408.962 405.966 409.359C407.472 409.983 408.841 410.898 409.994 412.051C411.147 413.204 412.062 414.573 412.687 416.079C413.084 417.038 413.358 418.041 413.505 419.063C413.783 420.998 412.171 422.384 410.527 422.384H401.369C400.426 422.384 399.662 421.619 399.662 420.676V411.518ZM129.311 391.754C131.754 391.052 134.007 393.306 133.306 395.749L127.104 417.34C126.07 420.938 121.264 421.622 119.289 418.451L116.552 414.056C115.795 412.84 115.977 411.259 116.993 410.243L122.837 404.399C123.44 403.796 123.442 402.82 122.841 402.219C122.24 401.618 121.263 401.62 120.66 402.223L114.817 408.066C113.801 409.082 112.221 409.266 111.005 408.509L106.608 405.77C103.438 403.796 104.121 398.99 107.72 397.956L129.311 391.754ZM206.279 390.216C210.007 388.972 213.775 391.308 214.821 395.089C215.534 397.665 214.859 400.366 213.213 402.216C213.55 402.652 213.918 403.073 214.318 403.474C214.716 403.872 215.134 404.239 215.568 404.575C217.418 402.916 220.127 402.232 222.711 402.948C226.491 403.996 228.821 407.766 227.58 411.494C226.765 413.94 225.247 415.427 223.221 415.916C221.338 416.37 219.309 415.887 217.519 415.143C213.914 413.644 210.353 410.692 208.728 409.065C207.063 407.4 204.124 403.835 202.639 400.236C201.901 398.45 201.426 396.427 201.882 394.554C202.372 392.538 203.851 391.026 206.279 390.216ZM374.828 385.259C379.085 385.259 382.537 388.71 382.537 392.967V408.384C382.537 412.641 379.085 416.092 374.828 416.092H359.412C355.155 416.092 351.703 412.641 351.703 408.384V392.967C351.703 388.71 355.155 385.259 359.412 385.259H374.828ZM503.093 399.592C503.695 398.99 504.671 398.99 505.273 399.592L509.203 403.522C509.805 404.124 509.805 405.1 509.203 405.702L502.325 412.58C502.128 412.778 501.88 412.918 501.609 412.986L496.369 414.296C495.844 414.427 495.288 414.273 494.905 413.891C494.523 413.508 494.368 412.952 494.499 412.427L495.81 407.186C495.877 406.915 496.017 406.667 496.215 406.47L503.093 399.592ZM375.148 401.505C373.158 399.847 370.194 400.146 368.576 402.169L366.111 405.25C365.629 405.853 364.764 405.988 364.121 405.56C362.156 404.25 359.519 404.651 358.033 406.482L355.932 408.918C355.376 409.562 355.447 410.536 356.092 411.093C356.736 411.649 357.71 411.577 358.267 410.933L360.403 408.456L360.421 408.434C360.904 407.83 361.768 407.696 362.411 408.125C364.385 409.44 367.037 409.029 368.519 407.177L370.984 404.095C371.52 403.425 372.499 403.322 373.162 403.863L376.125 406.46C376.765 407.021 377.739 406.956 378.3 406.316C378.861 405.676 378.797 404.702 378.157 404.141L375.163 401.517L375.148 401.505ZM435.011 377.362C437.351 375.272 440.888 375.272 443.229 377.362L443.602 377.695C444.122 378.16 444.785 378.435 445.482 378.475L445.981 378.503C449.115 378.679 451.616 381.18 451.792 384.313L451.82 384.812C451.859 385.51 452.134 386.174 452.6 386.694L452.933 387.066C455.024 389.406 455.023 392.944 452.933 395.284L452.6 395.657C452.134 396.178 451.86 396.841 451.82 397.538L451.792 398.037C451.616 401.17 449.115 403.671 445.981 403.848L445.482 403.876C444.785 403.915 444.122 404.19 443.602 404.655L443.229 404.988C440.888 407.079 437.351 407.079 435.011 404.988L434.639 404.655C434.118 404.19 433.454 403.915 432.757 403.876L432.258 403.848C429.125 403.671 426.623 401.17 426.447 398.037L426.419 397.538C426.38 396.841 426.105 396.178 425.64 395.657L425.307 395.284C423.216 392.944 423.216 389.406 425.307 387.066L425.64 386.694C426.105 386.174 426.38 385.51 426.419 384.812L426.447 384.313C426.624 381.18 429.125 378.679 432.258 378.503L432.757 378.475C433.454 378.435 434.118 378.161 434.639 377.695L435.011 377.362ZM511.716 392.759C512.862 392.759 513.961 393.214 514.771 394.024C515.581 394.835 516.037 395.933 516.037 397.079C516.037 398.225 515.582 399.324 514.771 400.135L513.563 401.342C512.961 401.944 511.986 401.944 511.384 401.342L507.453 397.412C506.851 396.81 506.851 395.833 507.453 395.231L508.661 394.024C509.471 393.214 510.57 392.759 511.716 392.759ZM362.495 391.426C359.941 391.426 357.87 393.497 357.87 396.051C357.87 398.605 359.941 400.676 362.495 400.676C365.049 400.676 367.12 398.605 367.12 396.051C367.12 393.497 365.049 391.426 362.495 391.426ZM218.777 392.41C219.106 391.606 220.035 391.216 220.853 391.539C222.096 392.03 223.221 392.771 224.154 393.716C225.087 394.66 225.809 395.787 226.271 397.022C226.576 397.835 226.152 398.738 225.325 399.037C224.498 399.336 223.58 398.92 223.275 398.106C222.967 397.283 222.486 396.531 221.864 395.901C221.242 395.272 220.492 394.777 219.663 394.45C218.845 394.127 218.449 393.214 218.777 392.41ZM218.719 386.488C218.956 385.604 219.865 385.079 220.75 385.315C223.562 386.069 226.128 387.55 228.187 389.608C230.245 391.667 231.726 394.232 232.479 397.045C232.717 397.93 232.192 398.84 231.307 399.077C230.422 399.314 229.512 398.788 229.275 397.903C228.672 395.654 227.488 393.602 225.841 391.955C224.194 390.308 222.142 389.123 219.892 388.52C219.007 388.283 218.482 387.373 218.719 386.488ZM325.578 373.842C328.132 373.842 330.203 375.913 330.203 378.467V393.884C330.203 396.438 328.132 398.509 325.578 398.509H325.331C323.081 398.509 320.943 397.525 319.479 395.816C318.956 395.206 318.348 394.734 317.537 394.576L316.693 394.412C313.796 393.849 311.703 391.31 311.703 388.358V383.992C311.703 381.04 313.796 378.503 316.693 377.939L317.537 377.775C318.348 377.618 318.956 377.144 319.479 376.534C320.943 374.826 323.081 373.842 325.331 373.842H325.578ZM297.828 366.759C302.085 366.759 305.537 370.21 305.537 374.467V389.884C305.537 394.141 302.085 397.592 297.828 397.592H282.412C278.155 397.592 274.703 394.141 274.703 389.884V374.467C274.703 370.21 278.155 366.759 282.412 366.759H297.828ZM362.495 394.509C363.346 394.509 364.037 395.199 364.037 396.051C364.037 396.902 363.346 397.592 362.495 397.592C361.644 397.592 360.953 396.902 360.953 396.051C360.953 395.199 361.644 394.509 362.495 394.509ZM475.12 366.759C483.634 366.759 490.537 373.661 490.537 382.176C490.537 390.69 483.634 397.592 475.12 397.592C466.606 397.592 459.703 390.69 459.703 382.176C459.703 373.661 466.606 366.759 475.12 366.759ZM444.835 385.46C444.233 384.858 443.257 384.858 442.655 385.46L433.405 394.71C432.803 395.312 432.803 396.288 433.405 396.891C434.007 397.492 434.983 397.492 435.585 396.891L444.835 387.641C445.437 387.038 445.437 386.062 444.835 385.46ZM442.975 392.717C441.698 392.717 440.662 393.752 440.662 395.029C440.662 396.306 441.697 397.342 442.975 397.342C444.252 397.341 445.287 396.306 445.287 395.029C445.287 393.752 444.251 392.717 442.975 392.717ZM406.12 365.259C414.634 365.259 421.537 372.161 421.537 380.676C421.537 389.19 414.634 396.092 406.12 396.092H393.573C391.825 396.092 390.719 394.232 391.526 392.703L392.843 389.871C393.067 389.388 393.022 388.826 392.756 388.365C391.451 386.101 390.703 383.474 390.703 380.676C390.703 372.161 397.606 365.259 406.12 365.259ZM338.365 377.902C339.103 377.477 340.046 377.73 340.472 378.467C341.825 380.81 342.537 383.47 342.537 386.176C342.537 388.882 341.825 391.54 340.472 393.884C340.046 394.621 339.103 394.874 338.365 394.448C337.628 394.022 337.375 393.079 337.801 392.342C338.883 390.467 339.453 388.34 339.453 386.176C339.453 384.011 338.883 381.884 337.801 380.009C337.375 379.271 337.628 378.328 338.365 377.902ZM333.901 380.479C334.639 380.054 335.582 380.307 336.008 381.044C336.909 382.604 337.383 384.374 337.383 386.176C337.383 387.977 336.908 389.747 336.008 391.307C335.582 392.044 334.639 392.297 333.901 391.871C333.164 391.445 332.912 390.502 333.338 389.765C333.968 388.673 334.3 387.436 334.3 386.176C334.3 384.916 333.968 383.677 333.338 382.586C332.912 381.849 333.164 380.905 333.901 380.479ZM435.266 385.009C433.989 385.009 432.953 386.044 432.953 387.321C432.953 388.598 433.989 389.634 435.266 389.634C436.543 389.634 437.578 388.598 437.578 387.321C437.578 386.044 436.543 385.009 435.266 385.009ZM480.835 376.46C480.422 376.047 479.812 375.903 479.258 376.088L472.32 378.4C471.86 378.554 471.498 378.915 471.345 379.375L469.032 386.312C468.848 386.866 468.992 387.478 469.405 387.891C469.818 388.303 470.429 388.447 470.982 388.263L477.92 385.95C478.38 385.797 478.742 385.436 478.896 384.976L481.208 378.038C481.393 377.484 481.248 376.873 480.835 376.46ZM290.12 374.467C289.269 374.467 288.578 375.157 288.578 376.009V382.176C288.578 382.584 288.741 382.977 289.03 383.266L292.113 386.349C292.715 386.951 293.692 386.951 294.294 386.349C294.895 385.747 294.895 384.771 294.294 384.169L291.662 381.537V376.009C291.662 375.157 290.971 374.467 290.12 374.467ZM401.495 382.217C400.644 382.217 399.953 382.907 399.953 383.759C399.953 384.61 400.644 385.301 401.495 385.301H410.745C411.596 385.301 412.287 384.61 412.287 383.759C412.287 382.907 411.596 382.217 410.745 382.217H401.495ZM401.495 376.051C400.644 376.051 399.953 376.74 399.953 377.592C399.953 378.443 400.644 379.134 401.495 379.134H404.578C405.43 379.134 406.12 378.443 406.12 377.592C406.12 376.74 405.429 376.051 404.578 376.051H401.495ZM355.87 365.259C359.276 365.259 362.037 368.02 362.037 371.426C362.037 374.831 359.276 377.592 355.87 377.592C352.465 377.592 349.703 374.831 349.703 371.426C349.703 368.02 352.464 365.259 355.87 365.259ZM374.37 362.176C375.221 362.176 375.912 362.866 375.912 363.717V376.051C375.912 376.902 375.221 377.592 374.37 377.592C373.519 377.592 372.828 376.902 372.828 376.051V363.717C372.828 362.865 373.519 362.176 374.37 362.176ZM433.279 343.716C437.007 342.472 440.775 344.808 441.821 348.589C442.534 351.165 441.859 353.866 440.213 355.716C440.55 356.152 440.918 356.573 441.318 356.974C441.716 357.372 442.134 357.739 442.568 358.075C444.418 356.416 447.127 355.732 449.711 356.448C453.491 357.496 455.821 361.266 454.58 364.994C453.766 367.44 452.246 368.927 450.221 369.416C448.338 369.87 446.309 369.387 444.519 368.643C440.914 367.144 437.353 364.192 435.728 362.565C434.063 360.9 431.124 357.335 429.639 353.736C428.901 351.95 428.426 349.927 428.882 348.054C429.372 346.038 430.851 344.526 433.279 343.716ZM339.12 335.976C342.158 335.976 344.62 338.509 344.62 341.633V356.718C344.62 359.842 342.158 362.375 339.12 362.375H317.12C314.083 362.375 311.62 359.842 311.62 356.718V341.633C311.62 338.509 314.083 335.976 317.12 335.976H339.12ZM355.87 346.759C356.721 346.759 357.412 347.449 357.412 348.301V360.634C357.412 361.485 356.721 362.176 355.87 362.176C355.019 362.176 354.328 361.485 354.328 360.634V348.301C354.328 347.449 355.019 346.759 355.87 346.759ZM397.352 330.243C400.148 327.931 404.092 327.931 406.889 330.243L415.191 337.108C416.687 338.345 417.537 340.221 417.537 342.178V354.522C417.537 357.094 415.554 359.341 412.912 359.342H409.828C407.274 359.342 405.203 357.271 405.203 354.717V349.606C405.203 348.558 404.426 347.87 403.662 347.87H400.578C399.814 347.87 399.037 348.558 399.037 349.606V354.717C399.037 357.271 396.966 359.341 394.412 359.342H391.328C388.686 359.342 386.703 357.094 386.703 354.522V342.178C386.703 340.221 387.552 338.345 389.048 337.108L397.352 330.243ZM374.37 346.759C377.776 346.759 380.537 349.52 380.537 352.926C380.537 356.331 377.776 359.092 374.37 359.092C370.965 359.092 368.203 356.331 368.203 352.926C368.203 349.52 370.964 346.759 374.37 346.759ZM337.658 343.194C337.089 342.483 336.05 342.367 335.339 342.936L328.12 348.712L320.9 342.936C320.189 342.368 319.151 342.483 318.582 343.194C318.013 343.906 318.128 344.944 318.839 345.514L328.12 352.938L337.4 345.514C338.112 344.944 338.227 343.906 337.658 343.194ZM456.453 340.3C457.304 340.3 457.995 340.99 457.995 341.842V348.449C457.995 349.301 457.305 349.991 456.453 349.991C455.602 349.991 454.912 349.3 454.912 348.449V345.563L449.835 350.641C449.233 351.242 448.257 351.242 447.655 350.641C447.053 350.038 447.053 349.062 447.655 348.46L452.731 343.384H449.846C448.994 343.383 448.305 342.693 448.305 341.842C448.305 340.991 448.995 340.3 449.846 340.3H456.453ZM313.853 329.879L295.795 347.936L205.505 257.646L223.562 239.588L313.853 329.879ZM363.12 309.009C371.634 309.009 378.537 315.911 378.537 324.426C378.537 332.94 371.634 339.842 363.12 339.842C354.606 339.842 347.703 332.94 347.703 324.426C347.703 315.911 354.606 309.009 363.12 309.009ZM363.12 312.092C356.309 312.092 350.787 317.614 350.787 324.426C350.787 327.553 351.951 330.41 353.87 332.584C356.324 330.388 359.567 329.051 363.12 329.051C366.674 329.051 369.917 330.387 372.37 332.583C374.289 330.409 375.453 327.553 375.453 324.426C375.453 317.614 369.932 312.092 363.12 312.092ZM363.12 315.176C366.526 315.176 369.287 317.936 369.287 321.342C369.287 324.747 366.526 327.509 363.12 327.509C359.714 327.509 356.953 324.747 356.953 321.342C356.953 317.936 359.715 315.176 363.12 315.176ZM404.056 291.422C404.817 291.041 405.743 291.35 406.124 292.111L408.782 297.429C412.476 297.498 415.292 300.789 414.768 304.464L413.194 315.474C412.652 319.271 409.4 322.092 405.563 322.092H394.677C390.841 322.092 387.588 319.271 387.046 315.474L385.474 304.464C384.949 300.789 387.764 297.499 391.457 297.429L394.116 292.111C394.497 291.35 395.423 291.041 396.185 291.422C396.946 291.803 397.255 292.729 396.874 293.49L394.906 297.426H405.334L403.366 293.49C402.986 292.729 403.294 291.803 404.056 291.422ZM219.12 290.509C227.634 290.509 234.537 297.411 234.537 305.925C234.537 314.439 227.634 321.342 219.12 321.342C210.606 321.342 203.703 314.439 203.703 305.925C203.704 297.411 210.606 290.509 219.12 290.509ZM115.479 293.7C116.677 291.709 119.563 291.709 120.762 293.7L123.671 298.535L129.168 299.808C131.432 300.332 132.324 303.078 130.801 304.833L127.103 309.094L127.59 314.715C127.791 317.03 125.455 318.727 123.315 317.82L118.12 315.619L112.925 317.82C110.785 318.727 108.449 317.03 108.65 314.715L109.138 309.094L105.439 304.833C103.916 303.078 104.808 300.332 107.072 299.808L112.569 298.535L115.479 293.7ZM405.8 305.551C405.179 304.969 404.202 305 403.62 305.621L398.818 310.742L396.464 308.84C395.802 308.305 394.831 308.408 394.296 309.07C393.761 309.732 393.864 310.703 394.526 311.238L397.995 314.041C398.623 314.548 399.537 314.485 400.089 313.896L405.87 307.729C406.452 307.108 406.421 306.133 405.8 305.551ZM224.835 300.21C224.422 299.797 223.812 299.653 223.258 299.838L216.32 302.15C215.86 302.304 215.498 302.665 215.345 303.125L213.032 310.062C212.848 310.616 212.992 311.228 213.405 311.641C213.818 312.053 214.429 312.197 214.982 312.013L221.92 309.7C222.38 309.547 222.742 309.186 222.896 308.726L225.208 301.788C225.393 301.234 225.248 300.623 224.835 300.21ZM225.735 174.814C242.439 158.111 266.817 157.509 282.618 173.31L301.579 192.27L283.521 210.329L264.561 191.368C258.24 185.048 248.608 185.048 242.288 191.368C235.968 197.688 235.968 207.319 242.288 213.64L250.565 221.916C266.667 238.017 312.414 203.106 332.729 223.421L350.035 240.727C365.836 256.527 365.234 280.906 348.53 297.609C331.827 314.313 307.448 314.915 291.647 299.114L269.827 277.294L287.885 259.236L309.705 281.056C316.025 287.376 325.656 287.376 331.977 281.056C338.297 274.735 338.297 265.104 331.977 258.784L320.69 247.498C304.889 231.698 260.346 267.813 238.526 245.993L224.23 231.697C208.43 215.896 209.032 191.518 225.735 174.814ZM385.448 274.593C388.147 273.383 390.912 276.148 389.702 278.847L379.747 301.056C378.281 304.325 373.691 304.465 372.028 301.291L369.593 296.643C369.159 295.814 368.482 295.136 367.653 294.702L363.004 292.267C359.83 290.604 359.971 286.013 363.24 284.548L385.448 274.593ZM333.785 132.376L310.009 156.152L379.833 225.977C381.94 228.083 384.95 228.083 387.057 225.977C389.163 223.87 389.163 220.86 387.057 218.754L345.975 177.671L364.032 159.613L405.114 200.695C416.701 212.282 415.949 230.191 403.609 242.53C391.27 254.869 373.363 255.622 361.775 244.035L260.349 142.608L278.407 124.551L293.455 139.599L317.231 115.822L333.785 132.376ZM167.453 245.967C168.304 245.967 168.995 246.657 168.995 247.509C168.995 248.36 168.305 249.051 167.453 249.051H156.662C155.811 249.051 155.12 248.36 155.12 247.509C155.12 246.657 155.811 245.967 156.662 245.967H167.453ZM155.084 228.709C155.686 228.107 156.663 228.107 157.265 228.709L161.587 233.03C162.189 233.632 162.189 234.609 161.587 235.211L150.848 245.95C149.86 246.938 148.622 247.639 147.267 247.977L143.16 249.004C142.635 249.135 142.079 248.981 141.696 248.599C141.314 248.216 141.16 247.66 141.291 247.135L142.317 243.029C142.656 241.674 143.357 240.436 144.345 239.448L155.084 228.709ZM214.533 230.56L196.476 248.617L175.408 227.55L193.466 209.491L214.533 230.56ZM126.12 209.759C134.634 209.759 141.537 216.661 141.537 225.176C141.537 233.69 134.634 240.592 126.12 240.592C117.606 240.592 110.703 233.69 110.703 225.176C110.703 216.661 117.606 209.759 126.12 209.759ZM164.397 221.301C165.001 221.301 165.599 221.419 166.156 221.65C166.714 221.881 167.222 222.221 167.648 222.647C168.075 223.074 168.415 223.581 168.646 224.139C168.876 224.696 168.995 225.295 168.995 225.898C168.995 226.502 168.876 227.1 168.646 227.657C168.414 228.215 168.075 228.722 167.648 229.149L165.947 230.851C165.345 231.452 164.369 231.453 163.767 230.851L159.445 226.528C158.843 225.926 158.843 224.95 159.445 224.348L161.146 222.647C162.009 221.785 163.178 221.301 164.397 221.301ZM119.954 223.171C118.847 223.171 117.95 224.068 117.949 225.175C117.949 226.282 118.847 227.18 119.954 227.18C121.061 227.179 121.958 226.281 121.958 225.175C121.958 224.068 121.061 223.171 119.954 223.171ZM126.12 223.171C125.014 223.171 124.117 224.068 124.116 225.175C124.116 226.282 125.013 227.18 126.12 227.18C127.227 227.18 128.124 226.282 128.124 225.175C128.124 224.068 127.227 223.171 126.12 223.171ZM132.287 223.171C131.18 223.171 130.284 224.068 130.283 225.175C130.283 226.282 131.18 227.18 132.287 227.18C133.394 227.18 134.291 226.282 134.291 225.175C134.291 224.068 133.394 223.171 132.287 223.171ZM151.578 179.759C159.241 179.759 165.453 185.971 165.453 193.634C165.453 196.91 164.317 199.919 162.418 202.293L168.085 207.96C168.687 208.562 168.687 209.538 168.085 210.141C167.483 210.742 166.507 210.742 165.905 210.141L160.237 204.473C157.864 206.371 154.854 207.509 151.578 207.509C143.915 207.509 137.703 201.297 137.703 193.634C137.703 185.971 143.915 179.759 151.578 179.759ZM107.328 178.759C111.585 178.759 115.037 182.21 115.037 186.467V201.884C115.037 206.141 111.585 209.592 107.328 209.592H91.9121C87.655 209.592 84.2032 206.141 84.2031 201.884V186.467C84.2033 182.21 87.6551 178.759 91.9121 178.759H107.328ZM323.33 77.5204C332.961 67.8899 347.107 67.2885 356.286 76.4677L461.775 181.957L448.683 195.049L443.266 189.631C444.921 195.499 443.717 201.218 439.805 205.131C433.183 211.752 421.596 210.097 412.416 200.918L353.878 142.38C344.699 133.2 342.893 121.462 349.514 114.841C353.426 110.928 359.446 109.725 365.164 111.53L343.193 89.5595C340.936 87.3026 337.625 87.3025 335.368 89.5595C333.111 91.8167 332.961 94.9771 335.218 97.2343L346.655 108.671L333.562 121.763L322.126 110.326C313.097 101.297 313.699 87.1513 323.33 77.5204ZM193.533 174.814C202.047 174.815 208.949 181.717 208.949 190.231C208.949 198.746 202.047 205.647 193.533 205.647C185.019 205.647 178.116 198.746 178.116 190.231C178.116 181.717 185.019 174.814 193.533 174.814ZM99.6201 186.467C99.2113 186.467 98.8194 186.63 98.5303 186.919L92.3633 193.085C91.7613 193.687 91.7613 194.663 92.3633 195.266C92.9653 195.867 93.9419 195.868 94.5439 195.266L98.0781 191.73V200.342C98.0781 201.193 98.7687 201.884 99.6201 201.884C100.472 201.884 101.162 201.193 101.162 200.342V191.73L104.696 195.266C105.298 195.868 106.275 195.868 106.877 195.266C107.479 194.663 107.479 193.687 106.877 193.085L100.71 186.919C100.421 186.63 100.029 186.467 99.6201 186.467ZM151.578 187.467C150.727 187.467 150.037 188.157 150.037 189.009V192.092H146.953C146.102 192.092 145.412 192.782 145.412 193.634C145.412 194.485 146.102 195.176 146.953 195.176H150.037V198.259C150.037 199.11 150.727 199.801 151.578 199.801C152.43 199.801 153.12 199.11 153.12 198.259V195.176H156.203C157.055 195.176 157.745 194.485 157.745 193.634C157.745 192.782 157.054 192.092 156.203 192.092H153.12V189.009C153.12 188.157 152.429 187.467 151.578 187.467ZM195.606 183.241C194.758 181.523 192.307 181.523 191.459 183.241L190.243 185.704L187.525 186.099C185.629 186.374 184.872 188.705 186.244 190.043L188.211 191.96L187.746 194.667C187.422 196.556 189.405 197.997 191.102 197.105L193.532 195.827L195.964 197.105C197.66 197.997 199.643 196.556 199.319 194.667L198.854 191.96L200.821 190.043C202.193 188.705 201.437 186.374 199.54 186.099L196.822 185.704L195.606 183.241ZM374.946 121.311C372.689 119.054 369.378 119.055 367.121 121.311C364.714 123.719 364.713 127.03 366.97 129.287L425.509 187.825C427.766 190.082 431.077 190.082 433.484 187.675C435.741 185.418 435.741 182.107 433.484 179.85L374.946 121.311ZM68.1201 150.759C76.6344 150.759 83.537 157.661 83.5371 166.176C83.5368 174.69 76.6343 181.592 68.1201 181.592C59.6059 181.592 52.7034 174.69 52.7031 166.176C52.7033 157.661 59.6058 150.759 68.1201 150.759ZM374.627 65.3495C372.972 60.0828 373.875 54.6652 377.486 51.0536C383.355 45.185 393.588 46.6896 401.413 54.5146L482.374 135.475C490.199 143.299 491.703 153.532 485.835 159.401C482.223 163.013 476.806 163.916 471.539 162.261L476.505 167.227L465.971 177.761L345.584 57.374L356.118 46.8398L374.627 65.3495ZM69.21 158.919C68.6079 158.317 67.6323 158.317 67.0303 158.919C66.4283 159.521 66.4283 160.497 67.0303 161.099L70.5645 164.634H61.9531C61.1019 164.634 60.4122 165.324 60.4121 166.176C60.4124 167.027 61.1019 167.717 61.9531 167.717H70.5645L67.0303 171.252C66.4283 171.854 66.4284 172.83 67.0303 173.432C67.6323 174.034 68.6079 174.034 69.21 173.432L75.377 167.266C75.6659 166.977 75.828 166.584 75.8281 166.176C75.8281 165.767 75.666 165.374 75.377 165.085L69.21 158.919ZM179.145 142.05C187.659 142.05 194.56 148.952 194.561 157.466C194.561 165.98 187.659 172.883 179.145 172.883C170.63 172.883 163.728 165.98 163.728 157.466C163.728 148.952 170.63 142.05 179.145 142.05ZM105.12 139.759C113.634 139.759 120.537 146.661 120.537 155.176C120.537 163.69 113.634 170.592 105.12 170.592H92.5732C90.8248 170.592 89.7187 168.732 90.5264 167.203L91.8428 164.371C92.067 163.888 92.0217 163.326 91.7559 162.865C90.4507 160.601 89.7032 157.974 89.7031 155.176C89.7033 146.661 96.6058 139.759 105.12 139.759ZM149.828 139.759C154.085 139.759 157.537 143.21 157.537 147.467V162.884C157.537 167.141 154.085 170.592 149.828 170.592H134.412C130.155 170.592 126.703 167.141 126.703 162.884V147.467C126.703 143.21 130.155 139.759 134.412 139.759H149.828ZM335.979 142.7C337.177 140.709 340.063 140.709 341.262 142.7L344.171 147.534L349.668 148.808C351.932 149.332 352.824 152.078 351.301 153.833L347.603 158.094L348.09 163.715C348.291 166.03 345.955 167.727 343.815 166.82L338.62 164.619L333.425 166.82C331.285 167.727 328.949 166.03 329.15 163.715L329.638 158.094L325.939 153.833C324.416 152.078 325.308 149.332 327.572 148.808L333.069 147.534L335.979 142.7ZM179.145 161.629C178.038 161.629 177.141 162.526 177.141 163.633C177.141 164.739 178.038 165.637 179.145 165.637C180.251 165.637 181.148 164.74 181.148 163.633C181.148 162.526 180.251 161.629 179.145 161.629ZM106.21 149.46C105.608 148.858 104.632 148.858 104.03 149.46C103.428 150.062 103.428 151.038 104.03 151.641L106.023 153.634H100.495C99.6438 153.634 98.9533 154.324 98.9531 155.176C98.9534 156.027 99.6438 156.717 100.495 156.717H106.023L104.03 158.71C103.428 159.312 103.428 160.288 104.03 160.891C104.632 161.492 105.608 161.492 106.21 160.891L110.835 156.266C111.124 155.977 111.287 155.584 111.287 155.176C111.287 154.767 111.124 154.374 110.835 154.085L106.21 149.46ZM241.12 133.976C244.158 133.976 246.62 136.509 246.62 139.633V154.718C246.62 157.842 244.158 160.375 241.12 160.375H219.12C216.083 160.375 213.62 157.842 213.62 154.718V139.633C213.62 136.509 216.083 133.976 219.12 133.976H241.12ZM142.12 147.467C141.269 147.467 140.578 148.157 140.578 149.009V155.176C140.578 155.584 140.741 155.977 141.03 156.266L144.113 159.349C144.715 159.951 145.692 159.951 146.294 159.349C146.895 158.747 146.895 157.771 146.294 157.169L143.662 154.537V149.009C143.662 148.157 142.971 147.467 142.12 147.467ZM179.145 155.462C178.038 155.462 177.141 156.359 177.141 157.466C177.141 158.573 178.038 159.47 179.145 159.47C180.251 159.47 181.148 158.573 181.148 157.466C181.148 156.359 180.251 155.462 179.145 155.462ZM390.88 65.0488C388.623 62.7917 385.01 62.7917 382.753 65.0488C380.346 67.4564 380.346 71.068 382.603 73.3251L463.563 154.285C465.821 156.542 469.432 156.542 471.84 154.135C474.097 151.877 474.097 148.266 471.84 146.009L390.88 65.0488ZM179.145 149.295C178.038 149.295 177.141 150.193 177.141 151.3C177.141 152.406 178.038 153.304 179.145 153.304C180.251 153.304 181.148 152.406 181.148 151.3C181.148 150.193 180.251 149.295 179.145 149.295ZM39.3496 121.259C39.775 121.259 40.1199 121.604 40.1201 122.029V125.884C40.1202 130.141 43.5711 133.592 47.8281 133.592H51.6826C52.1082 133.592 52.453 133.938 52.4531 134.363V145.926C52.4529 149.331 49.6925 152.092 46.2871 152.092H33.9531C30.5476 152.092 27.7874 149.331 27.7871 145.926V127.426C27.7872 124.02 30.5475 121.259 33.9531 121.259H39.3496ZM239.658 141.194C239.089 140.483 238.05 140.367 237.339 140.936L230.12 146.712L222.9 140.936C222.189 140.368 221.151 140.483 220.582 141.194C220.013 141.906 220.128 142.944 220.839 143.514L230.12 150.938L239.4 143.514C240.112 142.944 240.227 141.906 239.658 141.194ZM186.522 120.309C190.25 119.065 194.018 121.401 195.064 125.182C195.777 127.758 195.102 130.46 193.455 132.31C193.792 132.746 194.161 133.166 194.561 133.566C194.959 133.965 195.377 134.332 195.811 134.668C197.66 133.008 200.369 132.326 202.953 133.042C206.733 134.09 209.064 137.86 207.822 141.588C207.008 144.033 205.489 145.52 203.463 146.009C201.581 146.463 199.552 145.98 197.762 145.236C194.156 143.738 190.596 140.785 188.97 139.158C187.306 137.493 184.367 133.927 182.882 130.329C182.144 128.542 181.67 126.52 182.125 124.646C182.615 122.631 184.094 121.119 186.522 120.309ZM84.9355 110.259C89.1924 110.259 92.6433 113.71 92.6436 117.967V133.384C92.6435 137.641 89.1925 141.092 84.9355 141.092H69.5186C65.2614 141.092 61.8106 137.641 61.8105 133.384V117.967C61.8108 113.71 65.2615 110.259 69.5186 110.259H84.9355ZM497.233 132.052C498.437 133.255 500.243 133.255 501.447 132.052L503.554 129.944L508.671 135.06L506.563 137.168C502.199 141.532 495.729 141.682 491.666 137.619L378.502 24.455L384.07 18.8876L497.233 132.052ZM69.5186 113.342C66.9644 113.342 64.8938 115.413 64.8936 117.967V133.384C64.8936 134.723 65.4627 135.929 66.3721 136.773C68.4567 132.92 72.5342 130.301 77.2266 130.301C81.9189 130.301 85.9965 132.92 88.0811 136.773C88.9906 135.929 89.5605 134.723 89.5605 133.384V117.967C89.5603 115.413 87.4895 113.342 84.9355 113.342H69.5186ZM12.334 102.759C15.6307 102.759 18.7759 104.138 21.082 106.563C23.3855 108.987 24.6669 112.257 24.667 115.652C24.667 120.658 21.6395 125.125 18.875 128.194C17.4657 129.759 16.0609 131.032 15.0098 131.912C14.4832 132.353 14.0417 132.698 13.7295 132.935C13.5735 133.054 13.4491 133.146 13.3623 133.209C13.3191 133.24 13.2849 133.265 13.2607 133.282L13.2324 133.303L13.2236 133.31L13.2207 133.311L13.2188 133.312C12.6874 133.685 11.9786 133.684 11.4473 133.311L11.4434 133.31L11.4355 133.303L11.4062 133.282C11.3821 133.265 11.3479 133.24 11.3047 133.209C11.2178 133.146 11.0935 133.054 10.9375 132.935C10.6253 132.698 10.1838 132.353 9.65723 131.912C8.60608 131.032 7.20131 129.759 5.79199 128.194C3.02746 125.125 0 120.658 0 115.652C0.000119015 112.257 1.28161 108.987 3.58496 106.563C5.89118 104.137 9.03712 102.759 12.334 102.759ZM43.2031 122.462C43.2033 121.95 43.6981 121.581 44.1475 121.827C44.5291 122.036 44.8831 122.3 45.1963 122.613L51.0986 128.516C51.4118 128.829 51.6757 129.183 51.8848 129.564C52.1307 130.014 51.7625 130.509 51.25 130.509H47.8281C45.274 130.509 43.2032 128.438 43.2031 125.884V122.462ZM168.328 99.3369C171.734 99.3369 174.495 102.089 174.495 105.484V127.091C174.495 129.591 171.66 131.045 169.619 129.592L163.95 125.555C162.88 124.792 161.444 124.792 160.373 125.555L154.704 129.592C152.663 131.045 149.828 129.591 149.828 127.091V105.484C149.828 102.089 152.59 99.3369 155.995 99.3369H168.328ZM127.244 98.7587C129.408 98.7587 131.162 100.512 131.162 102.676C131.162 102.989 131.378 103.408 131.895 103.688C132.053 103.775 132.211 103.865 132.365 103.958C132.881 104.269 133.364 104.248 133.648 104.086C135.535 103.006 137.94 103.651 139.034 105.529L140.12 107.393C141.216 109.275 140.569 111.69 138.679 112.771C138.405 112.928 138.147 113.327 138.159 113.92C138.161 114.005 138.162 114.091 138.162 114.176C138.162 114.261 138.161 114.346 138.159 114.431C138.147 115.024 138.405 115.422 138.679 115.579C140.569 116.66 141.216 119.075 140.12 120.957L139.034 122.821C137.94 124.699 135.535 125.344 133.648 124.265C133.364 124.102 132.881 124.082 132.365 124.393C132.211 124.486 132.054 124.576 131.895 124.662C131.378 124.943 131.162 125.361 131.162 125.675C131.162 127.838 129.408 129.592 127.244 129.592H124.996C122.833 129.592 121.078 127.838 121.078 125.675C121.078 125.361 120.862 124.943 120.346 124.662C120.187 124.576 120.029 124.486 119.875 124.393C119.36 124.082 118.876 124.102 118.592 124.265C116.705 125.344 114.301 124.699 113.207 122.821L112.12 120.957C111.024 119.075 111.671 116.66 113.562 115.579C113.835 115.422 114.093 115.024 114.081 114.431C114.079 114.346 114.078 114.261 114.078 114.176C114.078 114.091 114.079 114.005 114.081 113.92C114.093 113.327 113.835 112.928 113.562 112.771C111.671 111.69 111.024 109.275 112.12 107.393L113.206 105.529C114.3 103.651 116.705 103.006 118.592 104.086C118.876 104.248 119.36 104.269 119.875 103.958C120.029 103.865 120.187 103.775 120.346 103.688C120.862 103.408 121.078 102.989 121.078 102.676C121.078 100.512 122.833 98.7587 124.996 98.7587H127.244ZM212.902 100.283C213.988 97.5021 218.02 97.5021 219.105 100.283L228.038 123.167C229.353 126.536 226.109 129.902 222.583 128.827L217.418 127.252C216.497 126.971 215.511 126.971 214.59 127.252L209.425 128.827C205.899 129.902 202.655 126.536 203.97 123.167L212.902 100.283ZM77.2266 116.426C80.6322 116.426 83.3933 119.186 83.3936 122.592C83.3936 125.997 80.6323 128.759 77.2266 128.759C73.8209 128.759 71.0605 125.997 71.0605 122.592C71.0608 119.186 73.8211 116.426 77.2266 116.426ZM398.062 3.38959C402.426 -0.974179 408.898 -1.12445 412.961 2.93842L462.771 52.749L452.989 62.5302L510.625 120.165C511.829 121.369 513.634 121.369 514.838 120.165C516.042 118.961 516.042 117.156 514.838 115.952L469.091 70.205L474.659 64.6367L520.406 110.384C524.469 114.447 524.318 120.918 519.954 125.282C515.59 129.646 509.12 129.796 505.057 125.733L397.611 18.288C393.548 14.225 393.699 7.75357 398.062 3.38959ZM12.334 110.467C9.7798 110.467 7.70921 112.538 7.70898 115.092C7.70898 117.646 9.77967 119.717 12.334 119.717C14.8881 119.717 16.959 117.646 16.959 115.092C16.9588 112.538 14.888 110.467 12.334 110.467ZM126.12 109.551C123.566 109.551 121.495 111.622 121.495 114.176C121.495 116.73 123.566 118.801 126.12 118.801C128.674 118.801 130.745 116.73 130.745 114.176C130.745 111.622 128.674 109.551 126.12 109.551ZM202.912 92.5917C203.763 92.592 204.453 93.2825 204.453 94.1337V95.6757C204.453 101.635 199.622 106.467 193.662 106.467V109.551C193.662 110.402 192.971 111.092 192.12 111.092C191.269 111.092 190.578 110.402 190.578 109.551V106.467C184.618 106.467 179.787 101.635 179.787 95.6757V94.1337C179.787 93.2825 180.477 92.5919 181.328 92.5917C182.179 92.5917 182.87 93.2824 182.87 94.1337V95.6757C182.87 99.9326 186.321 103.384 190.578 103.384H193.662C197.919 103.383 201.37 99.9325 201.37 95.6757V94.1337C201.37 93.2824 202.061 92.5917 202.912 92.5917ZM41.9121 91.2167C45.3176 91.217 48.078 93.9782 48.0781 97.3837V98.9257C48.0779 102.331 45.3175 105.091 41.9121 105.092H40.3701C36.9645 105.092 34.2034 102.331 34.2031 98.9257V97.3837C34.2033 93.9781 36.9644 91.2167 40.3701 91.2167H41.9121ZM58.8701 91.2167C62.2757 91.2168 65.037 93.9781 65.0371 97.3837V98.9257C65.0368 102.331 62.2757 105.092 58.8701 105.092H57.3281C53.9226 105.092 51.1624 102.331 51.1621 98.9257V97.3837C51.1622 93.9782 53.9226 91.2169 57.3281 91.2167H58.8701ZM193.662 80.2587C197.068 80.259 199.828 83.0202 199.828 86.4257V95.6757C199.828 99.0811 197.068 101.842 193.662 101.842H190.578C187.173 101.842 184.412 99.0812 184.412 95.6757V86.4257C184.412 83.0201 187.173 80.2589 190.578 80.2587H193.662ZM105.328 70.7587C109.585 70.7587 113.037 74.2097 113.037 78.4667V93.8837C113.037 98.1409 109.585 101.592 105.328 101.592H89.9121C85.655 101.592 82.2032 98.1409 82.2031 93.8837V78.4667C82.2033 74.2097 85.6551 70.7587 89.9121 70.7587H105.328ZM91.4531 87.7167C90.6019 87.7169 89.9122 88.4075 89.9121 89.2587V92.3417C89.9121 93.1931 90.6018 93.8836 91.4531 93.8837C92.3046 93.8837 92.9951 93.1932 92.9951 92.3417V89.2587C92.995 88.4074 92.3045 87.7167 91.4531 87.7167ZM97.6201 83.0917C96.7688 83.0917 96.0783 83.7824 96.0781 84.6337V92.3417C96.0781 93.1932 96.7687 93.8837 97.6201 93.8837C98.4715 93.8837 99.1621 93.1931 99.1621 92.3417V84.6337C99.162 83.7824 98.4714 83.0918 97.6201 83.0917ZM103.787 78.4667C102.936 78.4667 102.245 79.1574 102.245 80.0087V92.3417C102.245 93.1932 102.936 93.8837 103.787 93.8837C104.638 93.8835 105.328 93.193 105.328 92.3417V80.0087C105.328 79.1575 104.638 78.467 103.787 78.4667ZM41.9121 74.2587C45.3176 74.259 48.078 77.0202 48.0781 80.4257V81.9667C48.0781 85.3723 45.3177 88.1335 41.9121 88.1337H40.3701C36.9644 88.1337 34.2031 85.3725 34.2031 81.9667V80.4257C34.2033 77.0201 36.9644 74.2587 40.3701 74.2587H41.9121ZM58.8701 74.2587C62.2757 74.2588 65.037 77.0201 65.0371 80.4257V81.9667C65.0371 85.3725 62.2758 88.1337 58.8701 88.1337H57.3281C53.9225 88.1336 51.1621 85.3724 51.1621 81.9667V80.4257C51.1622 77.0201 53.9226 74.2588 57.3281 74.2587H58.8701ZM137.62 66.3837C140.873 66.3837 143.796 67.8133 146.113 69.4804C148.442 71.1561 150.293 73.1669 151.434 74.5517C152.699 76.0876 152.699 78.2628 151.434 79.7988C150.293 81.1836 148.442 83.1943 146.113 84.8701C143.796 86.5372 140.873 87.9667 137.62 87.9667C134.367 87.9667 131.444 86.5371 129.127 84.8701C126.798 83.1942 124.947 81.1835 123.807 79.7988C122.542 78.2628 122.542 76.0876 123.807 74.5517C124.947 73.1669 126.798 71.1562 129.127 69.4804C131.444 67.8134 134.367 66.3838 137.62 66.3837ZM137.62 71.0087C134.214 71.0087 131.453 73.7701 131.453 77.1757C131.453 80.5813 134.215 83.3417 137.62 83.3417C141.026 83.3417 143.787 80.5812 143.787 77.1757C143.787 73.7701 141.026 71.0088 137.62 71.0087ZM168.12 52.2587C171.526 52.2588 174.287 55.0201 174.287 58.4257V59.1962C174.287 60.0476 173.596 60.7382 172.745 60.7382C171.894 60.7382 171.203 60.0476 171.203 59.1962V58.4257C171.203 56.723 169.823 55.3418 168.12 55.3417C166.417 55.3417 165.037 56.723 165.037 58.4257V63.0507H174.287C177.693 63.051 180.453 65.8113 180.453 69.2167V76.9257C180.453 80.3311 177.693 83.0915 174.287 83.0917H161.953C158.548 83.0916 155.787 80.3312 155.787 76.9257V69.2167C155.787 65.9177 158.378 63.2238 161.636 63.0585L161.953 63.0507V58.4257C161.953 55.0201 164.714 52.2587 168.12 52.2587ZM137.62 74.0917C139.323 74.0918 140.703 75.473 140.703 77.1757C140.703 78.8783 139.323 80.2587 137.62 80.2587C135.917 80.2587 134.537 78.8784 134.537 77.1757C134.537 75.473 135.917 74.0917 137.62 74.0917ZM89.2559 30.2587C92.0278 30.2588 94.4896 32.0334 95.3662 34.663C95.4645 34.957 95.7061 35.1806 96.0068 35.2558L97.248 35.5663C100.062 36.27 102.037 38.7994 102.037 41.7001V53.3837C102.037 57.6407 98.5851 61.0927 94.3281 61.0927H78.9121C74.6551 61.0927 71.2034 57.6407 71.2031 53.3837V41.7001C71.2032 38.7993 73.1779 36.2699 75.9922 35.5663L77.2334 35.2558C77.5341 35.1806 77.7757 34.957 77.874 34.663C78.7507 32.0333 81.2124 30.2587 83.9844 30.2587H89.2559ZM142.12 27.7587C150.634 27.7588 157.537 34.6615 157.537 43.1757C157.537 51.6899 150.634 58.5917 142.12 58.5917C133.606 58.5917 126.703 51.6899 126.703 43.1757C126.703 34.6614 133.606 27.7587 142.12 27.7587ZM407.393 8.50677C406.189 7.30307 404.383 7.30307 403.179 8.50677C401.975 9.71048 401.975 11.5159 403.179 12.7197L447.873 57.414L452.086 53.2001L407.393 8.50677ZM86.6201 41.0507C83.2144 41.0507 80.4533 43.8121 80.4531 47.2177C80.4536 50.6231 83.2146 53.3837 86.6201 53.3837C90.0256 53.3837 92.7867 50.6231 92.7871 47.2177C92.787 43.8121 90.0257 41.0508 86.6201 41.0507ZM86.6201 44.1337C88.3229 44.1338 89.703 45.515 89.7031 47.2177C89.7027 48.9202 88.3227 50.3007 86.6201 50.3007C84.9175 50.3007 83.5375 48.9202 83.5371 47.2177C83.5372 45.5149 84.9173 44.1337 86.6201 44.1337ZM116.12 1.75873C124.634 1.75879 131.537 8.66148 131.537 17.1757C131.537 25.6899 124.634 32.5917 116.12 32.5917C107.606 32.5917 100.703 25.6899 100.703 17.1757C100.703 8.66144 107.606 1.75873 116.12 1.75873ZM116.12 9.46674C115.269 9.46674 114.578 10.1574 114.578 11.0087V15.6337H109.953C109.102 15.6338 108.412 16.3245 108.412 17.1757C108.412 18.0269 109.102 18.7166 109.953 18.7167H114.578V23.3417C114.578 24.1932 115.269 24.8837 116.12 24.8837C116.972 24.8837 117.662 24.1931 117.662 23.3417V18.7167H122.287C123.138 18.7165 123.828 18.0268 123.828 17.1757C123.828 16.3245 123.138 15.634 122.287 15.6337H117.662V11.0087C117.662 10.1574 116.971 9.46679 116.12 9.46674Z" fill="white"></path>
</svg>